<svg width="290" height="79" viewBox="0 0 290 79" fill="none" xmlns="http://www.w3.org/2000/svg">
<path d="M30.768 53H22.8L19.152 40.952L15.552 53H7.584L0.48 31.16L8.544 28.856L11.904 42.92L15.12 29.72H23.328L26.784 42.92L29.808 29.72H38.496L30.768 53ZM47.7851 45.368C47.7851 45.688 47.8491 45.976 47.9771 46.232C48.1371 46.456 48.3291 46.648 48.5531 46.808C48.8091 46.936 49.0811 47 49.3691 47C49.8811 47 50.3931 46.888 50.9051 46.664C51.4171 46.44 51.9291 46.12 52.4411 45.704V43.496H49.7531C49.1771 43.496 48.6971 43.672 48.3131 44.024C47.9611 44.376 47.7851 44.824 47.7851 45.368ZM43.5611 37.4L41.2571 31.112C42.0891 30.728 43.0491 30.376 44.1371 30.056C45.2571 29.704 46.4411 29.432 47.6891 29.24C48.9691 29.016 50.2491 28.904 51.5291 28.904C53.6411 28.904 55.4171 29.304 56.8571 30.104C58.2971 30.904 59.3691 32.024 60.0731 33.464C60.8091 34.904 61.1771 36.616 61.1771 38.6V53H56.9531L54.4571 50.6C53.7211 51.528 52.9051 52.248 52.0091 52.76C51.1451 53.272 50.2171 53.528 49.2251 53.528C46.2811 53.528 44.0891 52.792 42.6491 51.32C41.2091 49.848 40.4891 47.912 40.4891 45.512C40.4891 42.984 41.3371 41.224 43.0331 40.232C44.7291 39.208 46.9211 38.696 49.6091 38.696H52.3931L52.3451 38.456C52.1851 37.592 51.8331 36.968 51.2891 36.584C50.7451 36.2 50.1051 36.008 49.3691 36.008C48.5691 36.008 47.6251 36.152 46.5371 36.44C45.4491 36.696 44.4571 37.016 43.5611 37.4ZM74.991 53H66.255V19.64L74.991 19.112V53ZM89.4754 53H80.7394V19.64L89.4754 19.112V53ZM116.968 43.544H102.808C103.032 44.184 103.368 44.744 103.816 45.224C104.264 45.704 104.84 46.072 105.544 46.328C106.248 46.584 107.096 46.712 108.088 46.712C109.496 46.712 110.728 46.536 111.784 46.184C112.872 45.832 113.768 45.48 114.472 45.128L116.92 51.032C116.312 51.48 115.496 51.896 114.472 52.28C113.448 52.664 112.312 52.968 111.064 53.192C109.816 53.416 108.536 53.528 107.224 53.528C104.568 53.528 102.184 53.064 100.072 52.136C97.9598 51.208 96.2958 49.848 95.0798 48.056C93.8958 46.232 93.3038 44.008 93.3038 41.384C93.3038 38.76 93.8478 36.52 94.9358 34.664C96.0558 32.808 97.5598 31.384 99.4478 30.392C101.368 29.4 103.496 28.904 105.832 28.904C108.328 28.904 110.392 29.464 112.024 30.584C113.688 31.672 114.92 33.144 115.72 35C116.552 36.824 116.968 38.824 116.968 41V43.544ZM102.568 39.224H108.616C108.616 38.776 108.504 38.296 108.28 37.784C108.088 37.272 107.768 36.84 107.32 36.488C106.904 36.104 106.328 35.912 105.592 35.912C105.08 35.912 104.584 36.072 104.104 36.392C103.624 36.68 103.24 37.08 102.952 37.592C102.696 38.072 102.568 38.616 102.568 39.224ZM136.85 30.68L137.666 37.544H130.754V43.304C130.754 44.264 130.994 45.032 131.474 45.608C131.986 46.152 132.658 46.424 133.49 46.424C133.97 46.424 134.514 46.36 135.122 46.232C135.73 46.072 136.306 45.832 136.85 45.512L139.346 51.464C138.962 51.784 138.402 52.104 137.666 52.424C136.962 52.744 136.178 53 135.314 53.192C134.482 53.416 133.682 53.528 132.914 53.528C131.058 53.528 129.298 53.192 127.634 52.52C125.97 51.816 124.61 50.776 123.554 49.4C122.53 48.024 122.018 46.312 122.018 44.264V37.544H118.418V30.68H122.018V24.392L130.754 23.192V30.68H136.85ZM177.325 53C176.077 53 175.021 52.584 174.157 51.752C173.325 50.92 172.909 49.88 172.909 48.632C172.909 47.384 173.325 46.344 174.157 45.512C175.021 44.648 176.077 44.216 177.325 44.216C178.541 44.216 179.565 44.648 180.397 45.512C181.261 46.344 181.693 47.384 181.693 48.632C181.693 49.88 181.261 50.92 180.397 51.752C179.565 52.584 178.541 53 177.325 53ZM212.888 45.176L215.336 51.176C214.44 51.88 213.496 52.408 212.504 52.76C211.512 53.08 210.568 53.288 209.672 53.384C208.776 53.48 208.008 53.528 207.368 53.528C204.872 53.528 202.664 53.064 200.743 52.136C198.824 51.176 197.32 49.8 196.232 48.008C195.176 46.184 194.648 43.976 194.648 41.384C194.648 38.76 195.176 36.52 196.232 34.664C197.32 32.808 198.824 31.384 200.743 30.392C202.664 29.4 204.872 28.904 207.368 28.904C208.008 28.904 208.776 28.952 209.672 29.048C210.568 29.144 211.512 29.368 212.504 29.72C213.496 30.04 214.44 30.552 215.336 31.256L212.888 37.256C211.96 36.776 211.16 36.456 210.488 36.296C209.816 36.104 209.064 36.008 208.232 36.008C207.464 36.008 206.728 36.232 206.023 36.68C205.32 37.096 204.744 37.704 204.296 38.504C203.88 39.304 203.672 40.264 203.672 41.384C203.672 42.472 203.88 43.4 204.296 44.168C204.744 44.904 205.32 45.464 206.023 45.848C206.728 46.232 207.464 46.424 208.232 46.424C209 46.424 209.736 46.344 210.44 46.184C211.144 45.992 211.96 45.656 212.888 45.176ZM229.593 53.528C227.097 53.528 224.857 53.08 222.873 52.184C220.921 51.288 219.385 49.928 218.265 48.104C217.145 46.28 216.585 43.992 216.585 41.24C216.585 38.616 217.177 36.392 218.361 34.568C219.545 32.744 221.129 31.352 223.113 30.392C225.129 29.4 227.353 28.904 229.785 28.904C232.345 28.904 234.617 29.384 236.601 30.344C238.585 31.272 240.137 32.664 241.257 34.52C242.409 36.376 242.985 38.696 242.985 41.48C242.985 44.072 242.377 46.264 241.161 48.056C239.977 49.848 238.377 51.208 236.361 52.136C234.345 53.064 232.089 53.528 229.593 53.528ZM229.689 46.424C230.617 46.424 231.385 46.248 231.993 45.896C232.633 45.512 233.113 44.952 233.433 44.216C233.785 43.48 233.961 42.568 233.961 41.48C233.961 40.424 233.801 39.496 233.481 38.696C233.161 37.864 232.697 37.208 232.089 36.728C231.513 36.248 230.777 36.008 229.881 36.008C228.985 36.008 228.217 36.216 227.577 36.632C226.937 37.048 226.441 37.656 226.089 38.456C225.769 39.224 225.609 40.152 225.609 41.24C225.609 42.264 225.769 43.176 226.089 43.976C226.409 44.744 226.873 45.352 227.481 45.8C228.089 46.216 228.825 46.424 229.689 46.424ZM255.074 53H246.338V29.72H251.522L253.058 32.12C253.826 31.64 254.706 31.16 255.698 30.68C256.69 30.168 257.746 29.752 258.866 29.432C260.018 29.112 261.17 28.952 262.322 28.952C264.37 28.952 265.986 29.352 267.17 30.152C268.386 30.92 269.25 31.992 269.762 33.368C270.274 34.712 270.53 36.248 270.53 37.976V53H261.794V38.792C261.794 38.312 261.746 37.864 261.65 37.448C261.586 37 261.394 36.648 261.074 36.392C260.754 36.136 260.242 36.008 259.538 36.008C259.25 36.008 258.834 36.088 258.29 36.248C257.778 36.376 257.234 36.536 256.658 36.728C256.082 36.92 255.554 37.128 255.074 37.352V53ZM270.482 37.352L268.466 32.12C269.234 31.64 270.114 31.16 271.106 30.68C272.098 30.168 273.154 29.752 274.274 29.432C275.426 29.112 276.578 28.952 277.73 28.952C279.778 28.952 281.394 29.352 282.578 30.152C283.794 30.92 284.658 31.992 285.17 33.368C285.682 34.712 285.938 36.248 285.938 37.976V53H277.202V38.792C277.202 38.312 277.154 37.864 277.058 37.448C276.994 37 276.802 36.648 276.482 36.392C276.162 36.136 275.65 36.008 274.946 36.008C274.658 36.008 274.242 36.088 273.698 36.248C273.186 36.376 272.642 36.536 272.066 36.728C271.49 36.92 270.962 37.128 270.482 37.352Z" fill="black"/>
<mask id="mask0_33_3091" style="mask-type:alpha" maskUnits="userSpaceOnUse" x="136" y="17" width="62" height="62">
<rect x="136" y="17.5" width="61.5" height="61.5" fill="#D9D9D9"/>
</mask>
<g mask="url(#mask0_33_3091)">
<path d="M177 52.0938C178.11 52.0938 179.029 51.7307 179.755 51.0047C180.481 50.2786 180.844 49.3604 180.844 48.25C180.844 47.1396 180.481 46.2214 179.755 45.4953C179.029 44.7693 178.11 44.4062 177 44.4062C175.89 44.4062 174.971 44.7693 174.245 45.4953C173.519 46.2214 173.156 47.1396 173.156 48.25C173.156 49.3604 173.519 50.2786 174.245 51.0047C174.971 51.7307 175.89 52.0938 177 52.0938ZM148.813 71.3125C147.403 71.3125 146.197 70.8107 145.193 69.807C144.189 68.8034 143.688 67.5969 143.688 66.1875V30.3125C143.688 28.9031 144.189 27.6966 145.193 26.693C146.197 25.6893 147.403 25.1875 148.813 25.1875H184.688C186.097 25.1875 187.303 25.6893 188.307 26.693C189.311 27.6966 189.813 28.9031 189.813 30.3125V36.7188H184.688V30.3125H148.813V66.1875H184.688V59.7812H189.813V66.1875C189.813 67.5969 189.311 68.8034 188.307 69.807C187.303 70.8107 186.097 71.3125 184.688 71.3125H148.813ZM169.313 61.0625C167.903 61.0625 166.697 60.5607 165.693 59.557C164.689 58.5534 164.188 57.3469 164.188 55.9375V40.5625C164.188 39.1531 164.689 37.9466 165.693 36.943C166.697 35.9393 167.903 35.4375 169.313 35.4375H187.25C188.659 35.4375 189.866 35.9393 190.87 36.943C191.873 37.9466 192.375 39.1531 192.375 40.5625V55.9375C192.375 57.3469 191.873 58.5534 190.87 59.557C189.866 60.5607 188.659 61.0625 187.25 61.0625H169.313ZM187.25 55.9375V40.5625H169.313V55.9375H187.25Z" fill="#1C1B1F"/>
</g>
</svg>
